<svg width="107" height="32" viewBox="0 0 107 32" fill="none" xmlns="http://www.w3.org/2000/svg">
<path fill-rule="evenodd" clip-rule="evenodd" d="M22.8145 25.7593C21.1925 24.992 19.065 23.8646 17.8285 23.1954L17.673 23.1105C12.9863 20.5503 7.81088 17.7232 1.37964 18.4677C1.21973 18.4913 1.05666 18.481 0.900947 18.4377C0.745234 18.3943 0.600338 18.3188 0.475606 18.216C0.350875 18.1132 0.249077 17.9854 0.176782 17.8408C0.104486 17.6963 0.0632979 17.5382 0.0558738 17.3767C-0.0425714 16.1646 -0.0108722 14.9454 0.150429 13.74C0.456125 11.5988 1.19273 9.54182 2.31573 7.69332C3.43874 5.84482 4.92484 4.24317 6.68423 2.98515C8.44362 1.72713 10.4398 0.838849 12.5521 0.373976C14.6645 -0.0908973 16.8491 -0.122712 18.9741 0.280455C22.9104 1.04081 26.4203 3.2453 28.8144 6.46102C31.2085 9.67673 32.3139 13.6713 31.9136 17.6604C31.7462 19.5172 31.2305 21.3259 30.3934 22.9918C29.7392 24.3491 28.5813 25.3977 27.1659 25.9145C25.7506 26.4314 24.1894 26.3757 22.8145 25.7593ZM18.9741 21.1152C20.2542 21.8426 22.2072 22.8791 23.7928 23.5991C24.6044 23.9669 25.5281 24.0006 26.3644 23.693C27.2006 23.3855 27.8824 22.7613 28.2623 21.9553C29.1583 20.1117 29.6269 18.0898 29.6333 16.04C29.6397 13.9902 29.1837 11.9653 28.2992 10.1162C27.4148 8.26699 26.1246 6.64111 24.5249 5.35955C22.9251 4.07798 21.0569 3.17373 19.0593 2.71411C17.0617 2.25448 14.9861 2.25131 12.9871 2.70484C10.9881 3.15837 9.11713 4.05692 7.51346 5.3336C5.90978 6.61028 4.6147 8.23221 3.7246 10.0787C2.83451 11.9251 2.37233 13.9486 2.37247 15.9984C2.54637 15.9984 2.73518 15.9946 2.94042 15.9904C5.31468 15.9423 9.88599 15.8498 18.9741 21.1152ZM13.759 31.8436C11.0237 31.4702 8.43327 30.3894 6.24366 28.7081C4.05405 27.0269 2.3411 24.8033 1.27412 22.2572C1.2035 22.0845 1.17425 21.8976 1.18872 21.7116C1.20319 21.5256 1.26096 21.3455 1.35743 21.1858C1.4539 21.0261 1.58639 20.8911 1.74431 20.7917C1.90223 20.6923 2.08121 20.6313 2.26694 20.6134C7.63111 20.1806 12.0861 22.5881 16.7702 25.1484C18.7449 26.2394 21.0652 27.4613 22.9272 28.2323C23.1391 28.3187 23.3214 28.4647 23.452 28.6526C23.5826 28.8406 23.6558 29.0624 23.6627 29.2911C23.6696 29.5199 23.61 29.7457 23.4911 29.9412C23.3721 30.1368 23.199 30.2935 22.9926 30.3925C20.127 31.7821 16.9127 32.2872 13.759 31.8436ZM4.27441 22.9518C8.93306 30.4907 16.7375 29.9743 19.3741 29.2106C18.0903 28.5705 16.8502 27.8941 15.6319 27.2286L15.6255 27.2251C11.8311 25.1534 8.21803 23.1808 4.27441 22.9518ZM84.8316 22.5445C84.6788 22.3917 84.3915 22.0353 84.3915 20.9189V7.20842C83.622 7.08234 82.8371 7.08234 82.0676 7.20842V21.4317C82.0676 23.15 82.7442 23.7672 83.0377 24.035L83.0423 24.0392C84.2388 25.1302 86.7481 24.6902 87.0427 24.5592C87.0486 23.9465 86.9765 23.3354 86.8281 22.7409C86.7045 22.7882 85.3516 23.0536 84.8316 22.5445ZM70.3356 12.6852C70.8738 12.5107 75.307 11.2815 77.5872 13.2162C78.42 13.9217 78.82 15.0855 78.82 16.6674V24.2646L78.7444 24.2823C77.9039 24.4805 72.9903 25.6394 70.7029 23.9554C70.2701 23.6354 69.3391 22.8462 69.3391 20.9697C69.3233 20.3706 69.4559 19.777 69.7249 19.2415C69.9939 18.706 70.3911 18.2453 70.8811 17.9003C72.723 16.4967 75.9226 16.9285 76.4803 17.0038L76.5216 17.0093V16.562C76.5216 15.6273 76.2889 14.98 75.8125 14.6163C74.3141 13.5035 71.2447 14.4018 70.7865 14.5436C70.4741 13.9751 70.3185 13.3337 70.3356 12.6852ZM72.5976 22.6644C73.3831 23.1554 75.6925 22.959 76.5216 22.7335V18.8713C74.3723 18.5767 71.6884 18.5585 71.6884 20.9333C71.6884 22.095 72.2869 22.4697 72.5601 22.6408L72.5976 22.6644ZM64.3168 22.6391V12.4235H64.3058C65.0741 12.2974 65.8578 12.2974 66.6261 12.4235V24.2029C65.2071 24.6162 63.7397 24.84 62.262 24.8684C59.6872 24.8684 58.7853 24.2538 58.2616 23.8465C57.7379 23.4391 56.5778 22.4281 56.5778 19.1769V12.4235C56.9612 12.3599 57.3493 12.3282 57.7379 12.3289C58.135 12.3284 58.5315 12.3601 58.9235 12.4235V19.0823C58.9235 21.1335 59.5054 21.8572 59.789 22.1408C60.0727 22.4245 61.1746 23.3373 64.3168 22.6391ZM94.7962 18.5149C94.7962 14.4708 97.0036 12.1397 100.462 12.1397C103.932 12.1397 106.128 14.4854 106.128 18.5149C106.128 22.5444 103.921 24.8682 100.462 24.8682C97.0036 24.8682 94.7962 22.5589 94.7962 18.5149ZM97.2873 18.5149C97.2873 19.9223 97.4801 22.9953 100.462 22.9953C103.444 22.9953 103.662 19.9223 103.662 18.5149C103.662 17.1075 103.444 14.0599 100.462 14.0599C97.4801 14.0599 97.2873 17.1075 97.2873 18.5149ZM90.8029 7.27028C90.3781 7.27026 89.9539 7.30186 89.5338 7.36482C89.4771 7.76094 89.4539 8.16116 89.4647 8.56119C89.4545 8.9612 89.4776 9.36137 89.5338 9.75755C89.9538 9.82226 90.378 9.85508 90.8029 9.85573C91.2278 9.85579 91.6521 9.82296 92.072 9.75755C92.1282 9.36137 92.1514 8.9612 92.1411 8.56119C92.1519 8.16116 92.1288 7.76094 92.072 7.36482C91.652 7.30112 91.2277 7.26952 90.8029 7.27028ZM89.6539 24.5811V12.4235C90.4148 12.2974 91.1913 12.2974 91.9523 12.4235V24.5811C91.1917 24.712 90.4144 24.712 89.6539 24.5811ZM50.2827 23.9082C53.6721 21.8425 53.6721 17.0711 53.6721 16.0747C53.6721 14.7946 53.6721 7.25563 46.4896 7.25563C39.307 7.25563 39.2852 14.7946 39.2852 16.0747C39.2852 17.3548 39.2852 24.8683 46.4896 24.8683C47.536 24.8683 48.4323 25.3866 49.3936 25.9426C51.0014 26.8725 52.7913 27.9078 55.7705 26.7994C55.6504 26.0592 55.3753 25.3528 54.9631 24.7264C53.0642 25.4881 51.887 24.8192 50.5458 24.0572C50.4589 24.0078 50.3712 23.958 50.2827 23.9082ZM46.5187 22.7808H46.4896C41.8673 22.7808 41.8673 17.1148 41.8673 16.0747C41.8673 15.0346 41.8673 9.39038 46.4896 9.39038C51.1118 9.39038 51.1118 15.0455 51.1118 16.0747V16.0868C51.1119 17.1473 51.1123 22.7554 46.5187 22.7808Z" fill="#1D2473"/>
</svg>